<!--?xml version="1.0" encoding="utf-8"?-->
<!-- Generator: Adobe Illustrator 15.1.0, SVG Export Plug-In . SVG Version: 6.00 Build 0)  -->

<svg version="1.1" id="_x32_" xmlns="http://www.w3.org/2000/svg" xmlns:xlink="http://www.w3.org/1999/xlink" x="0px" y="0px" width="512px" height="512px" viewBox="0 0 512 512" style="width: 256px; height: 256px; opacity: 1;" xml:space="preserve">
<style type="text/css">

	.st0{fill:#4B4B4B;}

</style>
<g>
	<path class="st0" d="M124.755,221.208l4.234,5.813l131.516-101.828c-38.656-49.891-68.422-88.453-68.422-88.453
		c-7.359-10.016-17.484-8.922-22.578,2.391l-5.969,13.313c-5.063,11.313-19.109,18.344-31.188,15.594L18.552,42.317
		C6.474,39.583-1.729,47.333,0.317,59.567l8.609,51.094c2.031,12.219,13.625,24.359,25.75,27l63.672,13.75
		c12.125,2.625,11.875,4.453-0.5,4.109l-35.531-1.094c-12.391-0.344-18.141,8.234-12.766,19.094
		c5.375,10.891,19.75,21.594,31.922,23.875l7.891,1.453C101.552,201.114,117.474,211.161,124.755,221.208z" style="fill: rgb(75, 75, 75);"></path>
	<path class="st0" d="M508.317,245.27c-4.313-18.094-12.516-9.297-15.938-3.094c-2.781,5.047-28.703,58.297-69.813,90.344
		c-25.094-31.031-86.219-109.531-139.219-177.859L150.802,257.286l17.188,24.531c-20,53.641-59.109,164.437-59.109,164.437
		c-4.953,13.953,2.406,29.297,16.484,34.297c14.016,5.031,27.109-2.469,33.156-16.656l56.328-115.14l18.453,26.313
		c-7,7.703-11.516,17.75-11.719,28.938l-0.25,12.078c-1.063,0-2.156,0-3.156,0c-58.469,0-61.719,64.953-3.25,64.953
		c16.25,0,94.203,0,94.203,0s26,0,87.703,0c60.813,0,79.938-47.406,60.828-96.015C481.427,360.598,524.896,305.833,508.317,245.27z" style="fill: rgb(75, 75, 75);"></path>
</g>
</svg>
